<svg width="28" height="36" viewBox="0 0 28 36" fill="none" xmlns="http://www.w3.org/2000/svg">
<path d="M14 17.5625C14.8458 17.5625 15.5677 17.2635 16.1656 16.6656C16.7635 16.0677 17.0625 15.3458 17.0625 14.5C17.0625 13.6542 16.7635 12.9323 16.1656 12.3344C15.5677 11.7365 14.8458 11.4375 14 11.4375C13.1542 11.4375 12.4323 11.7365 11.8344 12.3344C11.2365 12.9323 10.9375 13.6542 10.9375 14.5C10.9375 15.3458 11.2365 16.0677 11.8344 16.6656C12.4323 17.2635 13.1542 17.5625 14 17.5625ZM14 32.0437C17.8792 28.5146 20.7448 25.3135 22.5969 22.4406C24.449 19.5677 25.375 17.0375 25.375 14.85C25.375 11.4083 24.274 8.59375 22.0719 6.40625C19.8698 4.21875 17.1792 3.125 14 3.125C10.8208 3.125 8.13021 4.21875 5.92812 6.40625C3.72604 8.59375 2.625 11.4083 2.625 14.85C2.625 17.0375 3.57292 19.5677 5.46875 22.4406C7.36458 25.3135 10.2083 28.5146 14 32.0437ZM14 35.5C9.30417 31.5042 5.79688 27.7927 3.47813 24.3656C1.15938 20.9385 0 17.7667 0 14.85C0 10.475 1.40729 6.98958 4.22187 4.39375C7.03646 1.79792 10.2958 0.5 14 0.5C17.7042 0.5 20.9635 1.79792 23.7781 4.39375C26.5927 6.98958 28 10.475 28 14.85C28 17.7667 26.8406 20.9385 24.5219 24.3656C22.2031 27.7927 18.6958 31.5042 14 35.5Z" fill="#FC9B03"/>
</svg>
