<svg width="85" height="85" viewBox="0 0 85 85" fill="none" xmlns="http://www.w3.org/2000/svg">
<path d="M66.4948 32.2292L52.7708 18.5052L58.9687 12.3073C59.9722 11.3038 61.2118 10.8021 62.6875 10.8021C64.1632 10.8021 65.4028 11.3038 66.4062 12.3073L72.6927 18.5938C73.6962 19.5972 74.1979 20.8368 74.1979 22.3125C74.1979 23.7882 73.6962 25.0278 72.6927 26.0313L66.4948 32.2292ZM10.625 74.375V60.5625L27.8021 43.3854L8.23438 23.7292L23.6406 8.14584L43.3854 27.8906L52.7708 18.5052L66.4948 32.2292L57.1094 41.6146L76.8542 61.3594L61.3594 76.6771L41.7031 57.1094L24.4375 74.375H10.625ZM31.6094 39.5781L39.5781 31.6094L33.1146 25.1458L28.8646 29.3958L25.1458 25.6771L29.3958 21.4271L23.7292 15.7604L15.7604 23.7292L31.6094 39.5781ZM61.1823 69.2396L69.151 61.2708L63.4844 55.6042L59.2344 59.8542L55.5156 56.1354L59.7656 51.8854L53.3021 45.4219L45.3333 53.3906L61.1823 69.2396ZM15.9375 69.0625H22.1354L58.8802 32.3177L52.6823 26.1198L15.9375 62.8646V69.0625Z" fill="#FC9B03"/>
</svg>
