<svg width="40" height="34" viewBox="0 0 40 34" fill="none" xmlns="http://www.w3.org/2000/svg">
<path d="M5.8335 28.3333C5.16683 28.3333 4.5835 28.1208 4.0835 27.6958C3.5835 27.2708 3.3335 26.775 3.3335 26.2083V7.79167C3.3335 7.22501 3.5835 6.72917 4.0835 6.30417C4.5835 5.87917 5.16683 5.66667 5.8335 5.66667H34.1668C34.8335 5.66667 35.4168 5.87917 35.9168 6.30417C36.4168 6.72917 36.6668 7.22501 36.6668 7.79167V26.2083C36.6668 26.775 36.4168 27.2708 35.9168 27.6958C35.4168 28.1208 34.8335 28.3333 34.1668 28.3333H5.8335ZM20.0002 17.6375L5.8335 9.73959V26.2083H34.1668V9.73959L20.0002 17.6375ZM20.0002 15.5125L34.0002 7.79167H6.04183L20.0002 15.5125ZM5.8335 9.73959V7.79167V26.2083V9.73959Z" fill="#FC9B03"/>
</svg>
