<svg width="85" height="85" viewBox="0 0 85 85" fill="none" xmlns="http://www.w3.org/2000/svg">
<path d="M3.71875 74.375V66.2292C3.71875 64.2222 4.19097 62.5547 5.13542 61.2266C6.07986 59.8984 7.40799 58.8212 9.11979 57.9948C12.3073 56.4601 15.7161 55.191 19.3464 54.1875C22.9766 53.184 27.0938 52.6823 31.6979 52.6823C36.3021 52.6823 40.4193 53.184 44.0495 54.1875C47.6797 55.191 51.0885 56.4601 54.276 57.9948C55.9878 58.8212 57.316 59.8984 58.2604 61.2266C59.2049 62.5547 59.6771 64.2222 59.6771 66.2292V74.375H3.71875ZM9.03125 69.0625H54.3646V66.2292C54.3646 65.3438 54.1137 64.6207 53.612 64.0599C53.1102 63.4991 52.5052 63.0712 51.7969 62.776C49.2587 61.6545 46.4254 60.5773 43.2969 59.5443C40.1684 58.5113 36.3021 57.9948 31.6979 57.9948C27.0938 57.9948 23.2274 58.5113 20.099 59.5443C16.9705 60.5773 14.1372 61.6545 11.599 62.776C10.8906 63.0712 10.2856 63.4991 9.78385 64.0599C9.28212 64.6207 9.03125 65.3438 9.03125 66.2292V69.0625ZM31.6979 47.3698C27.8021 47.3698 24.6146 46.1007 22.1354 43.5625C19.6562 41.0243 18.4167 37.8663 18.4167 34.0885H17.5312C17.059 34.0885 16.6458 33.9115 16.2917 33.5573C15.9375 33.2031 15.7604 32.7899 15.7604 32.3177C15.7604 31.8455 15.9375 31.4323 16.2917 31.0781C16.6458 30.724 17.059 30.5469 17.5312 30.5469H18.4167C18.4167 28.1858 19.0069 26.0608 20.1875 24.1719C21.3681 22.283 22.9028 20.7483 24.7917 19.5677V23.0208C24.7917 23.375 24.9245 23.6849 25.1901 23.9505C25.4557 24.2161 25.7656 24.349 26.1198 24.349C26.533 24.349 26.8576 24.2161 27.0938 23.9505C27.3299 23.6849 27.4479 23.375 27.4479 23.0208V18.4167C27.9201 18.2986 28.5694 18.1953 29.3958 18.1068C30.2222 18.0182 31.0191 17.974 31.7865 17.974C32.5538 17.974 33.3507 18.0182 34.1771 18.1068C35.0035 18.1953 35.6528 18.2986 36.125 18.4167V23.0208C36.125 23.375 36.2431 23.6849 36.4792 23.9505C36.7153 24.2161 37.0399 24.349 37.4531 24.349C37.8073 24.349 38.1172 24.2161 38.3828 23.9505C38.6484 23.6849 38.7812 23.375 38.7812 23.0208V19.5677C40.6701 20.7483 42.1754 22.283 43.2969 24.1719C44.4184 26.0608 44.9792 28.1858 44.9792 30.5469H45.8646C46.3368 30.5469 46.75 30.724 47.1042 31.0781C47.4583 31.4323 47.6354 31.8455 47.6354 32.3177C47.6354 32.7899 47.4583 33.2031 47.1042 33.5573C46.75 33.9115 46.3368 34.0885 45.8646 34.0885H44.9792C44.9792 37.8663 43.7396 41.0243 41.2604 43.5625C38.7812 46.1007 35.5938 47.3698 31.6979 47.3698ZM31.6979 42.0573C34.1771 42.0573 36.125 41.3194 37.5417 39.8438C38.9583 38.3681 39.6667 36.4497 39.6667 34.0885H23.7292C23.7292 36.4497 24.4375 38.3681 25.8542 39.8438C27.2708 41.3194 29.2188 42.0573 31.6979 42.0573ZM58.4375 53.0365L58.2604 50.4688C57.8472 50.2326 57.4193 49.967 56.9766 49.6719C56.5339 49.3767 56.1354 49.0816 55.7812 48.7865L53.4792 50.026L51.5312 47.1927L53.8333 45.5104C53.7153 45.2743 53.6562 45.053 53.6562 44.8464V43.5182C53.6562 43.3116 53.7153 43.0903 53.8333 42.8542L51.5312 41.1719L53.4792 38.3385L55.7812 39.5781L57.0208 38.6927C57.434 38.3976 57.8472 38.1319 58.2604 37.8958L58.4375 35.3281H61.9792L62.1562 37.8958C62.5694 38.1319 62.9826 38.3976 63.3958 38.6927L64.6354 39.5781L66.9375 38.3385L68.8854 41.1719L66.5833 42.8542C66.7014 43.0903 66.7604 43.3116 66.7604 43.5182V44.8464C66.7604 45.053 66.7014 45.2743 66.5833 45.5104L68.8854 47.1927L66.9375 50.026L64.6354 48.7865C64.2813 49.0816 63.8828 49.3767 63.4401 49.6719C62.9974 49.967 62.5694 50.2326 62.1562 50.4688L61.9792 53.0365H58.4375ZM60.2083 47.5469C61.1528 47.5469 61.9497 47.2222 62.599 46.5729C63.2483 45.9236 63.5729 45.1267 63.5729 44.1823C63.5729 43.2379 63.2483 42.441 62.599 41.7917C61.9497 41.1424 61.1528 40.8177 60.2083 40.8177C59.2639 40.8177 58.467 41.1424 57.8177 41.7917C57.1684 42.441 56.8437 43.2379 56.8437 44.1823C56.8437 45.1267 57.1684 45.9236 57.8177 46.5729C58.467 47.2222 59.2639 47.5469 60.2083 47.5469ZM68 33.8229L67.2031 30.724C66.6129 30.4879 66.0078 30.1632 65.388 29.75C64.7682 29.3368 64.2517 28.8941 63.8385 28.4219L59.9427 29.8385L58.1719 26.7396L61.2708 24.2604C61.1528 23.9653 61.0495 23.6406 60.9609 23.2865C60.8724 22.9323 60.8281 22.5781 60.8281 22.224C60.8281 21.8698 60.8724 21.5156 60.9609 21.1615C61.0495 20.8073 61.1528 20.4826 61.2708 20.1875L58.1719 17.7083L59.9427 14.6094L63.8385 16.026C64.2517 15.5538 64.7682 15.0964 65.388 14.6536C66.0078 14.2109 66.6129 13.901 67.2031 13.724L68 10.625H71.3646L72.1615 13.724C72.7517 13.901 73.3568 14.2109 73.9766 14.6536C74.5964 15.0964 75.1129 15.5538 75.526 16.026L79.4219 14.6094L81.1927 17.7083L78.0938 20.1875C78.2118 20.4826 78.3151 20.8073 78.4037 21.1615C78.4922 21.5156 78.5365 21.8698 78.5365 22.224C78.5365 22.5781 78.4922 22.9323 78.4037 23.2865C78.3151 23.6406 78.2118 23.9653 78.0938 24.2604L81.1927 26.7396L79.4219 29.8385L75.526 28.4219C75.1129 28.8941 74.5964 29.3368 73.9766 29.75C73.3568 30.1632 72.7517 30.4879 72.1615 30.724L71.3646 33.8229H68ZM69.6823 27.3594C71.158 27.3594 72.3828 26.8724 73.3568 25.8984C74.3307 24.9245 74.8177 23.6997 74.8177 22.224C74.8177 20.7483 74.3307 19.5234 73.3568 18.5495C72.3828 17.5755 71.158 17.0885 69.6823 17.0885C68.2066 17.0885 66.9818 17.5755 66.0078 18.5495C65.0339 19.5234 64.5469 20.7483 64.5469 22.224C64.5469 23.6997 65.0339 24.9245 66.0078 25.8984C66.9818 26.8724 68.2066 27.3594 69.6823 27.3594Z" fill="#FC9B03"/>
</svg>
