<svg width="34" height="28" viewBox="0 0 34 28" fill="none" xmlns="http://www.w3.org/2000/svg">
<path d="M28.1562 24.5C25.2757 24.5 22.4128 23.9167 19.5677 22.75C16.7226 21.5833 14.1667 20.0667 11.9 18.2C9.63333 16.3333 7.79167 14.2285 6.375 11.8854C4.95833 9.54236 4.25 7.18472 4.25 4.8125C4.25 4.44306 4.40347 4.13194 4.71042 3.87917C5.01736 3.62639 5.39514 3.5 5.84375 3.5H10.8021C11.1326 3.5 11.4219 3.59236 11.6698 3.77708C11.9177 3.96181 12.0771 4.20972 12.1479 4.52083L13.1042 8.19583C13.1514 8.46806 13.1455 8.71597 13.0865 8.93958C13.0274 9.16319 12.9035 9.35278 12.7146 9.50833L9.17292 12.4542C10.4951 14.2625 11.9767 15.8375 13.6177 17.1792C15.2587 18.5208 17.1181 19.6583 19.1958 20.5917L22.5604 17.7333C22.7965 17.5194 23.0681 17.3687 23.375 17.2812C23.6819 17.1937 23.9889 17.1792 24.2958 17.2375L28.5104 17.9958C28.8646 18.0542 29.1597 18.2 29.3958 18.4333C29.6319 18.6667 29.75 18.9389 29.75 19.25V23.1875C29.75 23.5569 29.5965 23.8681 29.2896 24.1208C28.9826 24.3736 28.6049 24.5 28.1562 24.5ZM8.11042 10.85L10.9792 8.45833L10.1646 5.25H6.375C6.375 6.00833 6.51667 6.83958 6.8 7.74375C7.08333 8.64792 7.52014 9.68333 8.11042 10.85ZM21.1792 21.4375C22.1472 21.8069 23.1979 22.1083 24.3312 22.3417C25.4646 22.575 26.5625 22.7111 27.625 22.75V19.6292L23.9771 19.0167L21.1792 21.4375Z" fill="#FC9B03"/>
</svg>
