<svg width="44" height="36" viewBox="0 0 44 36" fill="none" xmlns="http://www.w3.org/2000/svg">
<path d="M14.0918 35.25V32.375H18.7502V27.5833H3.5835C2.71683 27.5833 1.9585 27.2958 1.3085 26.7208C0.658496 26.1458 0.333496 25.475 0.333496 24.7083V3.625C0.333496 2.85833 0.658496 2.1875 1.3085 1.6125C1.9585 1.0375 2.71683 0.75 3.5835 0.75H40.4168C41.2835 0.75 42.0418 1.0375 42.6918 1.6125C43.3418 2.1875 43.6668 2.85833 43.6668 3.625V24.7083C43.6668 25.475 43.3418 26.1458 42.6918 26.7208C42.0418 27.2958 41.2835 27.5833 40.4168 27.5833H25.2502V32.375H29.9085V35.25H14.0918ZM3.5835 24.7083H40.4168V3.625H3.5835V24.7083Z" fill="#FC9B03"/>
</svg>
