<svg width="85" height="85" viewBox="0 0 85 85" fill="none" xmlns="http://www.w3.org/2000/svg">
<path d="M36.6562 56.7375L66.9375 32.5125L61.3594 28.1563L37.0547 47.6L23.6406 36.8687L17.7969 41.5437L36.6562 56.7375ZM42.5 85C30.1042 82.5208 19.9219 76.7656 11.9531 67.7344C3.98438 58.7031 0 48.8042 0 38.0375V12.75L42.5 0L85 12.75V38.0375C85 48.8042 81.0156 58.7031 73.0469 67.7344C65.0781 76.7656 54.8958 82.5208 42.5 85ZM42.5 78.4125C52.6823 75.7208 60.9831 70.6385 67.4023 63.1656C73.8216 55.6927 77.0312 47.3167 77.0312 38.0375V17.2125L42.5 6.8L7.96875 17.2125V38.0375C7.96875 47.3167 11.1784 55.6927 17.5977 63.1656C24.0169 70.6385 32.3177 75.7208 42.5 78.4125Z" fill="#FC9B03"/>
</svg>
