<svg width="48" height="48" viewBox="0 0 48 48" fill="none" xmlns="http://www.w3.org/2000/svg">
<path d="M4 40V35.3C4 34.1667 4.28333 33.125 4.85 32.175C5.41667 31.225 6.26667 30.5 7.4 30C9.8 28.9334 12 28.1667 14 27.7C16 27.2334 18 27 20 27C20.9667 27 21.9917 27.0584 23.075 27.175C24.1583 27.2917 25.2667 27.5 26.4 27.8L23.95 30.25C23.2833 30.1834 22.625 30.125 21.975 30.075C21.325 30.025 20.6667 30 20 30C18.0667 30 16.3083 30.175 14.725 30.525C13.1417 30.875 11.1 31.6 8.6 32.7C8.03333 32.9667 7.625 33.35 7.375 33.85C7.125 34.35 7 34.8334 7 35.3V37H22.95L25.95 40H4ZM31.25 40.8L24.2 33.75L26.3 31.65L31.25 36.6L41.9 25.95L44 28.05L31.25 40.8ZM20 23.9C17.8 23.9 16 23.2 14.6 21.8C13.2 20.4 12.5 18.6 12.5 16.4C12.5 14.2 13.2 12.4 14.6 11C16 9.60002 17.8 8.90002 20 8.90002C22.2 8.90002 24 9.60002 25.4 11C26.8 12.4 27.5 14.2 27.5 16.4C27.5 18.6 26.8 20.4 25.4 21.8C24 23.2 22.2 23.9 20 23.9ZM20 20.9C21.3 20.9 22.375 20.475 23.225 19.625C24.075 18.775 24.5 17.7 24.5 16.4C24.5 15.1 24.075 14.025 23.225 13.175C22.375 12.325 21.3 11.9 20 11.9C18.7 11.9 17.625 12.325 16.775 13.175C15.925 14.025 15.5 15.1 15.5 16.4C15.5 17.7 15.925 18.775 16.775 19.625C17.625 20.475 18.7 20.9 20 20.9Z" fill="#FC9B03"/>
</svg>
